<svg width="124" height="40" viewBox="0 0 124 40" fill="none" xmlns="http://www.w3.org/2000/svg">
    <path fill-rule="evenodd" clip-rule="evenodd" d="M18.7401 30.082H5.19336V1.01489H18.2015V5.10935H9.19919V13.3373H17.4939V17.4122H9.19919V26.0071H18.7401V30.082Z" fill="white"/>
    <path fill-rule="evenodd" clip-rule="evenodd" d="M40.0104 30.043H35.6312L24.105 8.67684C23.8102 8.1382 23.5704 7.57614 23.3817 6.99457H23.2795C23.3699 7.61908 23.4132 8.94617 23.4132 10.9875V30.043H19.5449V0.97583H24.2033L35.3481 21.8306C35.8198 22.6971 36.1186 23.2904 36.2562 23.6144H36.327C36.213 22.8455 36.154 21.5379 36.154 19.7034V0.97583H40.0104V30.043Z" fill="white"/>
    <path fill-rule="evenodd" clip-rule="evenodd" d="M41.7637 29.7892V0.722046H48.7257C57.6259 0.722046 62.0798 5.44102 62.0798 14.8946C62.0798 19.3793 60.8455 22.982 58.3728 25.7103C55.904 28.4309 52.594 29.7931 48.4427 29.7931H41.7598L41.7637 29.7892ZM45.7538 4.8165V25.7142H48.9538C51.7685 25.7142 53.9581 24.7814 55.5266 22.9195C57.0912 21.0499 57.8696 18.4153 57.8696 15.0117C57.8696 8.21619 54.9527 4.82041 49.1031 4.82041H45.7538V4.8165Z" fill="white"/>
    <path fill-rule="evenodd" clip-rule="evenodd" d="M77.0065 29.5472H63.6445V0.480103H67.6504V25.4723H77.0065V29.5472Z" fill="white"/>
    <path fill-rule="evenodd" clip-rule="evenodd" d="M91.5409 29.5941H77.9902V0.526978H90.9984V4.62143H81.9961V12.8494H90.2908V16.9243H81.9961V25.5192H91.5409V29.5941Z" fill="white"/>
    <path fill-rule="evenodd" clip-rule="evenodd" d="M92.4259 28.5988V23.63C92.7994 24.0398 93.2357 24.4067 93.7468 24.7229C94.2578 25.0469 94.7964 25.324 95.3743 25.5465C95.9443 25.769 96.5182 25.9407 97.0922 26.0656C97.6622 26.1827 98.189 26.2452 98.6725 26.2452C100.355 26.2452 101.609 25.9056 102.435 25.2342C103.256 24.5551 103.669 23.5754 103.669 22.2951C103.669 21.6042 103.531 21.0071 103.256 20.5035C102.985 19.9922 102.6 19.5277 102.108 19.114C101.613 18.6925 101.035 18.2904 100.367 17.9118C99.6946 17.5254 98.983 17.1234 98.2165 16.7018C97.3949 16.1749 96.6362 15.6441 95.9286 15.1015C95.2209 14.5629 94.6077 13.9618 94.0848 13.3099C93.562 12.6542 93.1532 11.9126 92.8544 11.089C92.5556 10.2655 92.4062 9.29746 92.4062 8.18895C92.4062 6.82673 92.6657 5.63625 93.1768 4.63313C93.6839 3.6222 94.36 2.79082 95.1934 2.13508C96.0308 1.48325 96.9821 0.99535 98.0474 0.675287C99.1088 0.355225 100.202 0.199097 101.31 0.199097C103.838 0.199097 105.678 0.546482 106.834 1.23735V5.99925C105.466 4.81658 103.7 4.21939 101.546 4.21939C100.953 4.21939 100.363 4.28184 99.7693 4.41846C99.1757 4.55116 98.6528 4.77755 98.189 5.08981C97.7251 5.39426 97.3438 5.79629 97.0529 6.28028C96.758 6.77209 96.6165 7.36147 96.6165 8.04453C96.6165 8.72759 96.7266 9.25452 96.9506 9.72681C97.1747 10.203 97.501 10.6324 97.9374 11.0266C98.3698 11.4208 98.8966 11.8033 99.5177 12.1702C100.139 12.5449 100.862 12.9469 101.684 13.3802C102.521 13.9071 103.315 14.4614 104.062 15.0391C104.809 15.6206 105.466 16.2647 106.032 16.9633C106.602 17.6698 107.05 18.4505 107.376 19.3092C107.71 20.1679 107.875 21.1437 107.875 22.2366C107.875 23.712 107.628 24.9571 107.132 25.968C106.637 26.9868 105.973 27.8103 105.139 28.4466C104.302 29.075 103.343 29.5395 102.25 29.8244C101.165 30.1093 100.013 30.2459 98.8022 30.2459C98.3934 30.2459 97.902 30.2108 97.3084 30.1366C96.7226 30.0586 96.1172 29.9571 95.5001 29.8127C94.8868 29.6761 94.3011 29.5004 93.7546 29.3014C93.2043 29.0945 92.7601 28.8642 92.422 28.6105L92.4259 28.5988Z" fill="white"/>
    <path fill-rule="evenodd" clip-rule="evenodd" d="M108.543 28.4036V23.4348C108.917 23.8447 109.353 24.2116 109.864 24.5277C110.375 24.8517 110.914 25.1288 111.491 25.3513C112.061 25.5738 112.635 25.7455 113.209 25.8704C113.779 25.9875 114.306 26.05 114.79 26.05C116.472 26.05 117.726 25.7104 118.552 25.039C119.373 24.3599 119.786 23.3802 119.786 22.0999C119.786 21.4091 119.649 20.8119 119.373 20.3084C119.102 19.797 118.717 19.3326 118.225 18.9188C117.73 18.4973 117.152 18.0952 116.484 17.7166C115.812 17.3302 115.1 16.9282 114.334 16.5066C113.512 15.9797 112.753 15.4489 112.046 14.9063C111.338 14.3677 110.725 13.7666 110.202 13.1148C109.679 12.459 109.27 11.7174 108.972 10.8938C108.673 10.0703 108.523 9.10227 108.523 7.99376C108.523 6.63154 108.783 5.44106 109.294 4.43794C109.801 3.42701 110.477 2.59563 111.311 1.93989C112.148 1.28806 113.099 0.796256 114.165 0.480097C115.226 0.160034 116.319 0.00390625 117.427 0.00390625C119.955 0.00390625 121.795 0.351291 122.951 1.04216V5.80406C121.583 4.62139 119.818 4.0242 117.663 4.0242C117.07 4.0242 116.48 4.08665 115.886 4.22327C115.293 4.35597 114.77 4.58236 114.306 4.89462C113.842 5.19907 113.461 5.6011 113.17 6.08509C112.875 6.5769 112.734 7.16628 112.734 7.84934C112.734 8.5324 112.844 9.05933 113.068 9.53162C113.292 10.0078 113.618 10.4372 114.055 10.8314C114.487 11.2256 115.014 11.6081 115.635 11.975C116.256 12.3497 116.979 12.7518 117.801 13.185C118.638 13.7119 119.432 14.2662 120.179 14.8439C120.926 15.4255 121.583 16.0695 122.149 16.7682C122.719 17.4746 123.167 18.2553 123.493 19.114C123.827 19.9727 123.992 20.9485 123.992 22.0414C123.992 23.5168 123.745 24.7619 123.249 25.7728C122.754 26.7916 122.09 27.6151 121.256 28.2514C120.419 28.8798 119.46 29.3443 118.367 29.6292C117.282 29.9141 116.13 30.0507 114.919 30.0507C114.511 30.0507 114.019 30.0156 113.426 29.9415C112.84 29.8673 112.234 29.7619 111.617 29.6175C111.004 29.4809 110.418 29.3052 109.872 29.1062C109.321 28.8993 108.877 28.669 108.539 28.4153L108.543 28.4036Z" fill="white"/>
    <path d="M1.89088 30.121C2.93518 30.121 3.78176 29.2909 3.78176 28.267C3.78176 27.243 2.93518 26.413 1.89088 26.413C0.846575 26.413 0 27.243 0 28.267C0 29.2909 0.846575 30.121 1.89088 30.121Z" fill="white"/>
</svg>
