<svg width="140" height="45" viewBox="0 0 140 45" fill="none" xmlns="http://www.w3.org/2000/svg">
    <path fill-rule="evenodd" clip-rule="evenodd" d="M21.158 33.8423H5.86328V1.14172H20.5499V5.74799H10.386V15.0044H19.751V19.5887H10.386V29.2579H21.158V33.8423Z" fill="white"/>
    <path fill-rule="evenodd" clip-rule="evenodd" d="M45.1746 33.7983H40.2302L27.2169 9.76142C26.884 9.15545 26.6133 8.52313 26.4002 7.86886H26.2848C26.3869 8.57143 26.4357 10.0644 26.4357 12.361V33.7983H22.0684V1.09778H27.3278L39.9107 24.5594C40.4433 25.5343 40.7806 26.2017 40.9359 26.5662H41.0158C40.8871 25.7011 40.8205 24.2301 40.8205 22.1663V1.09778H45.1746V33.7983Z" fill="white"/>
    <path fill-rule="evenodd" clip-rule="evenodd" d="M47.1529 33.5129V0.812378H55.0133C65.0618 0.812378 70.0905 6.12122 70.0905 16.7565C70.0905 21.8018 68.6968 25.8548 65.9051 28.9242C63.1178 31.9848 59.3806 33.5173 54.6937 33.5173H47.1484L47.1529 33.5129ZM51.6578 5.41864V28.9286H55.2707C58.4486 28.9286 60.9207 27.8791 62.6917 25.7846C64.4581 23.6812 65.3369 20.7172 65.3369 16.8882C65.3369 9.24329 62.0437 5.42303 55.4393 5.42303H51.6578V5.41864Z" fill="white"/>
    <path fill-rule="evenodd" clip-rule="evenodd" d="M86.9435 33.2407H71.8574V0.540161H76.3801V28.6564H86.9435V33.2407Z" fill="white"/>
    <path fill-rule="evenodd" clip-rule="evenodd" d="M103.352 33.2933H88.0527V0.592773H102.739V5.19904H92.5755V14.4555H101.94V19.0398H92.5755V28.709H103.352V33.2933Z" fill="white"/>
    <path fill-rule="evenodd" clip-rule="evenodd" d="M104.35 32.1736V26.5838C104.772 27.0448 105.265 27.4576 105.842 27.8133C106.419 28.1777 107.027 28.4895 107.679 28.7398C108.323 28.9901 108.971 29.1833 109.619 29.3238C110.262 29.4556 110.857 29.5258 111.403 29.5258C113.303 29.5258 114.718 29.1438 115.65 28.3885C116.578 27.6245 117.044 26.5223 117.044 25.082C117.044 24.3048 116.889 23.633 116.578 23.0665C116.272 22.4913 115.837 21.9687 115.282 21.5033C114.723 21.029 114.07 20.5767 113.316 20.1508C112.557 19.7161 111.754 19.2638 110.888 18.7896C109.96 18.1968 109.104 17.5996 108.305 16.9892C107.506 16.3832 106.814 15.707 106.223 14.9737C105.633 14.236 105.171 13.4017 104.834 12.4752C104.497 11.5486 104.328 10.4597 104.328 9.21258C104.328 7.68009 104.621 6.3408 105.198 5.21229C105.771 4.07499 106.534 3.13969 107.475 2.40198C108.42 1.66867 109.494 1.11978 110.697 0.759713C111.896 0.399643 113.129 0.223999 114.381 0.223999C117.235 0.223999 119.312 0.614807 120.617 1.39203V6.74917C119.072 5.41867 117.08 4.74683 114.647 4.74683C113.977 4.74683 113.311 4.81709 112.641 4.97078C111.971 5.12008 111.381 5.37476 110.857 5.72605C110.333 6.06855 109.903 6.52084 109.574 7.06533C109.241 7.61861 109.082 8.28167 109.082 9.05011C109.082 9.81855 109.206 10.4114 109.459 10.9427C109.712 11.4784 110.08 11.9614 110.573 12.4049C111.061 12.8484 111.656 13.2787 112.357 13.6915C113.058 14.113 113.875 14.5653 114.803 15.0527C115.748 15.6455 116.645 16.2691 117.488 16.919C118.331 17.5732 119.072 18.2978 119.712 19.0838C120.355 19.8786 120.861 20.7568 121.23 21.7228C121.607 22.6889 121.793 23.7866 121.793 25.0162C121.793 26.676 121.514 28.0767 120.954 29.214C120.395 30.3601 119.645 31.2866 118.704 32.0024C117.759 32.7094 116.676 33.2319 115.442 33.5525C114.217 33.873 112.916 34.0267 111.549 34.0267C111.088 34.0267 110.533 33.9872 109.863 33.9037C109.201 33.8159 108.518 33.7017 107.821 33.5393C107.129 33.3856 106.467 33.188 105.85 32.964C105.229 32.7313 104.728 32.4722 104.346 32.1868L104.35 32.1736Z" fill="white"/>
    <path fill-rule="evenodd" clip-rule="evenodd" d="M122.548 31.954V26.3642C122.969 26.8252 123.462 27.238 124.039 27.5937C124.616 27.9581 125.224 28.2699 125.876 28.5202C126.52 28.7705 127.168 28.9637 127.816 29.1042C128.46 29.2359 129.054 29.3062 129.6 29.3062C131.5 29.3062 132.916 28.9242 133.848 28.1689C134.775 27.4049 135.241 26.3027 135.241 24.8624C135.241 24.0852 135.086 23.4134 134.775 22.8469C134.469 22.2717 134.034 21.7491 133.479 21.2837C132.92 20.8094 132.268 20.3571 131.513 19.9312C130.754 19.4965 129.951 19.0442 129.085 18.57C128.158 17.9772 127.301 17.38 126.502 16.7696C125.703 16.1636 125.011 15.4874 124.421 14.7541C123.83 14.0164 123.369 13.1821 123.031 12.2556C122.694 11.329 122.525 10.24 122.525 8.99298C122.525 7.46048 122.818 6.1212 123.395 4.99268C123.968 3.85539 124.731 2.92008 125.672 2.18238C126.618 1.44907 127.692 0.895788 128.894 0.540109C130.093 0.180039 131.327 0.00439453 132.578 0.00439453C135.432 0.00439453 137.509 0.395203 138.814 1.17243V6.52957C137.27 5.19907 135.277 4.52723 132.845 4.52723C132.174 4.52723 131.509 4.59749 130.838 4.75117C130.168 4.90047 129.578 5.15516 129.054 5.50644C128.531 5.84895 128.1 6.30123 127.772 6.84573C127.439 7.39901 127.279 8.06206 127.279 8.83051C127.279 9.59895 127.403 10.1917 127.656 10.7231C127.909 11.2588 128.278 11.7418 128.77 12.1853C129.258 12.6288 129.853 13.0591 130.554 13.4719C131.256 13.8934 132.072 14.3457 133 14.8331C133.945 15.4259 134.842 16.0495 135.685 16.6994C136.528 17.3536 137.27 18.0782 137.909 18.8642C138.552 19.659 139.058 20.5372 139.427 21.5032C139.804 22.4693 139.99 23.567 139.99 24.7965C139.99 26.4564 139.711 27.8571 139.152 28.9944C138.592 30.1405 137.842 31.067 136.901 31.7828C135.956 32.4898 134.873 33.0123 133.639 33.3328C132.414 33.6534 131.114 33.8071 129.747 33.8071C129.285 33.8071 128.73 33.7676 128.06 33.6841C127.399 33.6007 126.715 33.4821 126.018 33.3197C125.326 33.166 124.665 32.9684 124.048 32.7444C123.426 32.5117 122.925 32.2526 122.543 31.9672L122.548 31.954Z" fill="white"/>
    <path d="M2.13486 33.8861C3.31392 33.8861 4.26973 32.9523 4.26973 31.8004C4.26973 30.6484 3.31392 29.7146 2.13486 29.7146C0.955811 29.7146 0 30.6484 0 31.8004C0 32.9523 0.955811 33.8861 2.13486 33.8861Z" fill="white"/>
</svg>
