<?xml version="1.0" encoding="UTF-8"?>
<svg id="_Слой_1" data-name="Слой_1" xmlns="http://www.w3.org/2000/svg" version="1.1" viewBox="0 0 315.43 102.48">
  <!-- Generator: Adobe Illustrator 29.3.1, SVG Export Plug-In . SVG Version: 2.1.0 Build 151)  -->
  <defs>
    <style>
      .st0, .st1 {
      fill: #fff;
      }

      .st1 {
      fill-rule: evenodd;
      }
    </style>
  </defs>
  <polygon class="st1" points="47.67 77.07 13.21 77.07 13.21 2.6 46.3 2.6 46.3 13.09 23.4 13.09 23.4 34.17 44.5 34.17 44.5 44.61 23.4 44.61 23.4 66.63 47.67 66.63 47.67 77.07"/>
  <path class="st1" d="M101.78,76.97h-11.14l-29.32-54.74c-.75-1.38-1.36-2.82-1.84-4.31h-.26c.23,1.6.34,5,.34,10.23v48.82h-9.84V2.5h11.85l28.35,53.43c1.2,2.22,1.96,3.74,2.31,4.57h.18c-.29-1.97-.44-5.32-.44-10.02V2.5h9.81v74.47Z"/>
  <path class="st1" d="M106.24,76.32V1.85h17.71c22.64,0,33.97,12.09,33.97,36.31,0,11.49-3.14,20.72-9.43,27.71-6.28,6.97-14.7,10.46-25.26,10.46h-17ZM116.39,12.34v53.54h8.14c7.16,0,12.73-2.39,16.72-7.16,3.98-4.79,5.96-11.54,5.96-20.26,0-17.41-7.42-26.11-22.3-26.11h-8.52Z"/>
  <polygon class="st1" points="195.89 75.7 161.9 75.7 161.9 1.23 172.09 1.23 172.09 65.26 195.89 65.26 195.89 75.7"/>
  <polygon class="st1" points="232.86 75.82 198.39 75.82 198.39 1.35 231.48 1.35 231.48 11.84 208.58 11.84 208.58 32.92 229.68 32.92 229.68 43.36 208.58 43.36 208.58 65.38 232.86 65.38 232.86 75.82"/>
  <path class="st1" d="M235.11,73.27v-12.73c.95,1.05,2.06,1.99,3.36,2.8,1.3.83,2.67,1.54,4.14,2.11,1.45.57,2.91,1.01,4.37,1.33,1.45.3,2.79.46,4.02.46,4.28,0,7.47-.87,9.57-2.59,2.09-1.74,3.14-4.25,3.14-7.53,0-1.77-.35-3.3-1.05-4.59-.69-1.31-1.67-2.5-2.92-3.56-1.26-1.08-2.73-2.11-4.43-3.08-1.71-.99-3.52-2.02-5.47-3.1-2.09-1.35-4.02-2.71-5.82-4.1-1.8-1.38-3.36-2.92-4.69-4.59-1.33-1.68-2.37-3.58-3.13-5.69-.76-2.11-1.14-4.59-1.14-7.43,0-3.49.66-6.54,1.96-9.11,1.29-2.59,3.01-4.72,5.13-6.4,2.13-1.67,4.55-2.92,7.26-3.74,2.7-.82,5.48-1.22,8.3-1.22,6.43,0,11.11.89,14.05,2.66v12.2c-3.48-3.03-7.97-4.56-13.45-4.56-1.51,0-3.01.16-4.52.51-1.51.34-2.84.92-4.02,1.72-1.18.78-2.15,1.81-2.89,3.05-.75,1.26-1.11,2.77-1.11,4.52s.28,3.1.85,4.31c.57,1.22,1.4,2.32,2.51,3.33,1.1,1.01,2.44,1.99,4.02,2.93,1.58.96,3.42,1.99,5.51,3.1,2.13,1.35,4.15,2.77,6.05,4.25,1.9,1.49,3.57,3.14,5.01,4.93,1.45,1.81,2.59,3.81,3.42,6.01.85,2.2,1.27,4.7,1.27,7.5,0,3.78-.63,6.97-1.89,9.56-1.26,2.61-2.95,4.72-5.07,6.35-2.13,1.61-4.57,2.8-7.35,3.53-2.76.73-5.69,1.08-8.77,1.08-1.04,0-2.29-.09-3.8-.28-1.49-.2-3.03-.46-4.6-.83-1.56-.35-3.05-.8-4.44-1.31-1.4-.53-2.53-1.12-3.39-1.77Z"/>
  <path class="st1" d="M276.11,72.77v-12.73c.95,1.05,2.06,1.99,3.36,2.8,1.3.83,2.67,1.54,4.14,2.11,1.45.57,2.91,1.01,4.37,1.33,1.45.3,2.79.46,4.02.46,4.28,0,7.47-.87,9.57-2.59,2.09-1.74,3.14-4.25,3.14-7.53,0-1.77-.35-3.3-1.05-4.59-.69-1.31-1.67-2.5-2.92-3.56-1.26-1.08-2.73-2.11-4.43-3.08-1.71-.99-3.52-2.02-5.47-3.1-2.09-1.35-4.02-2.71-5.82-4.1-1.8-1.38-3.36-2.92-4.69-4.59-1.33-1.68-2.37-3.58-3.13-5.69-.76-2.11-1.14-4.59-1.14-7.43,0-3.49.66-6.54,1.96-9.11,1.29-2.59,3.01-4.72,5.13-6.4,2.13-1.67,4.55-2.93,7.26-3.74,2.7-.82,5.48-1.22,8.3-1.22,6.43,0,11.11.89,14.05,2.66v12.2c-3.48-3.03-7.97-4.56-13.45-4.56-1.51,0-3.01.16-4.52.51-1.51.34-2.84.92-4.02,1.72-1.18.78-2.15,1.81-2.89,3.05-.75,1.26-1.11,2.77-1.11,4.52s.28,3.1.85,4.31c.57,1.22,1.4,2.32,2.51,3.33,1.1,1.01,2.44,1.99,4.02,2.93,1.58.96,3.42,1.99,5.51,3.1,2.13,1.35,4.15,2.77,6.05,4.25,1.9,1.49,3.57,3.14,5.01,4.93,1.45,1.81,2.59,3.81,3.42,6.01.85,2.2,1.27,4.7,1.27,7.5,0,3.78-.63,6.97-1.89,9.56-1.26,2.61-2.95,4.72-5.07,6.35-2.13,1.61-4.57,2.8-7.35,3.53-2.76.73-5.69,1.08-8.77,1.08-1.04,0-2.29-.09-3.8-.28-1.49-.19-3.03-.46-4.6-.83-1.56-.35-3.05-.8-4.44-1.31-1.4-.53-2.53-1.12-3.39-1.77Z"/>
  <ellipse class="st0" cx="4.81" cy="72.42" rx="4.81" ry="4.75"/>
  <path class="st1" d="M26.99,102.14h-2.39v-16.39h-6.52v-2.03h15.42v2.03h-6.52v16.39h0ZM36.54,102.14v-18.42h2.39v18.42h-2.39ZM54.21,102.14h-1.09l-4.9-11c-.68-1.51-1.36-3.16-2.04-4.94h-.11c.13,2.56.2,4.91.2,7.03v8.91h-2.39v-18.42h3.43l4.59,10.42c.52,1.19,1.1,2.63,1.74,4.31h.07c.7-1.86,1.28-3.3,1.74-4.31l4.59-10.42h3.43v18.42h-2.39v-8.91c0-2.08.07-4.43.2-7.03h-.11c-.72,1.88-1.4,3.53-2.04,4.94l-4.9,11h0ZM70.78,100.11h10v2.03h-12.38v-18.42h11.84v2.03h-9.45v5.95h8.41v2.03h-8.41v6.38h0ZM143.58,102.14h-2.39v-16.39h-6.52v-2.03h15.42v2.03h-6.52v16.39h0ZM167.48,92.93c0-1.24-.17-2.33-.52-3.28-.34-.95-.82-1.74-1.42-2.37-.61-.63-1.32-1.11-2.14-1.44-.82-.32-1.7-.49-2.64-.49s-1.83.16-2.64.49c-.82.32-1.53.8-2.14,1.44-.6.63-1.07,1.42-1.42,2.37-.34.95-.52,2.04-.52,3.28s.17,2.33.52,3.27c.35.94.83,1.73,1.43,2.36.61.63,1.32,1.11,2.14,1.43.82.32,1.7.48,2.66.48s1.82-.16,2.63-.48c.81-.32,1.52-.79,2.12-1.43.6-.64,1.07-1.42,1.42-2.36.34-.95.52-2.03.52-3.27h0ZM169.84,92.93c0,1.4-.21,2.68-.64,3.85-.42,1.17-1.03,2.17-1.82,3.01-.79.85-1.74,1.5-2.85,1.98-1.11.47-2.36.71-3.74.71s-2.7-.24-3.83-.71c-1.12-.48-2.08-1.13-2.86-1.98-.78-.84-1.38-1.85-1.79-3.01-.41-1.17-.62-2.45-.62-3.85s.21-2.69.64-3.87c.43-1.17,1.03-2.18,1.82-3.03.79-.84,1.74-1.5,2.86-1.97,1.11-.47,2.37-.71,3.75-.71s2.69.24,3.8.71c1.12.48,2.07,1.13,2.85,1.97.78.85,1.38,1.86,1.79,3.03.41,1.17.62,2.46.62,3.87h0ZM229.15,88.58c0,.54.11.99.35,1.34.23.36.54.65.94.88.39.23.85.42,1.36.56.52.15,1.06.28,1.62.41.76.17,1.5.37,2.23.58.73.21,1.38.5,1.95.87.57.37,1.03.86,1.39,1.45.35.6.53,1.36.53,2.3s-.19,1.78-.57,2.47c-.38.69-.91,1.26-1.59,1.71-.68.45-1.47.78-2.4.99-.92.22-1.93.32-3.03.32-.51,0-1.02-.03-1.55-.09-.53-.06-1.03-.14-1.52-.24-.48-.1-.92-.22-1.3-.34-.39-.13-.7-.26-.92-.39v-2.05c.35.16.74.31,1.18.45.44.14.89.25,1.36.35.47.09.93.17,1.41.23.48.05.93.08,1.34.08.68,0,1.33-.06,1.94-.16.62-.11,1.16-.3,1.62-.55.47-.26.84-.61,1.11-1.05.27-.45.41-1,.41-1.67,0-.55-.12-1.01-.36-1.36-.23-.36-.55-.65-.95-.89s-.86-.42-1.37-.57c-.52-.15-1.06-.28-1.64-.41-.76-.17-1.5-.35-2.22-.56-.73-.21-1.37-.49-1.93-.86-.57-.37-1.02-.84-1.37-1.42-.34-.58-.52-1.32-.52-2.22s.18-1.74.54-2.42c.36-.68.86-1.24,1.47-1.68.62-.44,1.33-.77,2.14-.98.81-.21,1.67-.31,2.58-.31,1.04,0,2,.09,2.9.28.9.19,1.72.44,2.47.74v2.08c-.81-.32-1.64-.58-2.5-.79-.86-.2-1.78-.31-2.76-.31-.74,0-1.38.08-1.92.23-.54.15-.99.37-1.35.65-.36.28-.63.62-.8,1.02-.17.4-.26.84-.26,1.33h0ZM246.1,91.7h10.18v-7.98h2.39v18.42h-2.39v-8.41h-10.18v8.41h-2.39v-18.42h2.39v7.98h0ZM278.7,92.93c0-1.24-.17-2.33-.52-3.28-.34-.95-.82-1.74-1.42-2.37-.61-.63-1.32-1.11-2.14-1.44-.82-.32-1.7-.49-2.64-.49s-1.83.16-2.64.49c-.82.32-1.53.8-2.14,1.44-.6.63-1.07,1.42-1.42,2.37-.34.95-.52,2.04-.52,3.28s.17,2.33.52,3.27c.35.94.83,1.73,1.43,2.36.61.63,1.32,1.11,2.14,1.43.82.32,1.7.48,2.66.48s1.82-.16,2.63-.48c.81-.32,1.52-.79,2.12-1.43.6-.64,1.07-1.42,1.42-2.36.34-.95.52-2.03.52-3.27h0ZM281.06,92.93c0,1.4-.21,2.68-.64,3.85-.42,1.17-1.03,2.17-1.82,3.01-.79.85-1.74,1.5-2.85,1.98-1.11.47-2.36.71-3.74.71s-2.7-.24-3.83-.71c-1.12-.48-2.08-1.13-2.86-1.98-.78-.84-1.38-1.85-1.79-3.01-.41-1.17-.62-2.45-.62-3.85s.21-2.69.64-3.87c.43-1.17,1.03-2.18,1.82-3.03.79-.84,1.74-1.5,2.85-1.97,1.11-.47,2.37-.71,3.76-.71s2.69.24,3.8.71c1.12.48,2.07,1.13,2.85,1.97.78.85,1.38,1.86,1.79,3.03.41,1.17.62,2.46.62,3.87h0ZM296.05,86.76c-.15.85-.52,2.32-1.09,4.43l-3.02,10.95h-2.42l-5.97-18.42h2.39l3.34,10.81c.53,1.74.98,3.3,1.36,4.68h.05c.19-.85.41-1.68.63-2.49.23-.81.43-1.53.6-2.16l2.96-10.84h2.39l2.93,10.84c.72,2.6,1.13,4.16,1.22,4.65h.06c.33-1.28.79-2.84,1.36-4.68l3.35-10.81h2.39l-5.98,18.42h-2.41l-3-10.95c-.55-2.04-.91-3.52-1.08-4.43h-.06Z"/>
</svg>